<?xml version="1.0" encoding="UTF-8" standalone="no"?>
<!DOCTYPE svg PUBLIC "-//W3C//DTD SVG 1.1//EN"
 "http://www.w3.org/Graphics/SVG/1.1/DTD/svg11.dtd">
<!-- Generated by graphviz version 2.38.0 (20140413.2041)
 -->
<!-- Title: G Pages: 1 -->
<svg width="494pt" height="402pt"
 viewBox="0.00 0.00 494.48 402.00" xmlns="http://www.w3.org/2000/svg" xmlns:xlink="http://www.w3.org/1999/xlink">
<g id="graph0" class="graph" transform="scale(1 1) rotate(0) translate(4 398)">
<title>G</title>
<polygon fill="white" stroke="none" points="-4,4 -4,-398 490.478,-398 490.478,4 -4,4"/>
<g id="clust1" class="cluster"><title>cluster_Global</title>
<path fill="none" stroke="gray" d="M95.2388,-44C95.2388,-44 466.478,-44 466.478,-44 472.478,-44 478.478,-50 478.478,-56 478.478,-56 478.478,-374 478.478,-374 478.478,-380 472.478,-386 466.478,-386 466.478,-386 95.2388,-386 95.2388,-386 89.2388,-386 83.2388,-380 83.2388,-374 83.2388,-374 83.2388,-56 83.2388,-56 83.2388,-50 89.2388,-44 95.2388,-44"/>
<text text-anchor="middle" x="280.858" y="-373.2" font-family="Times,serif" font-size="11.00" fill="gray">Global</text>
</g>
<!-- \\BhvDB -->
<g id="node1" class="node"><title>\\BhvDB</title>
<polygon fill="none" stroke="black" points="424.978,-358 370.978,-358 370.978,-322 424.978,-322 424.978,-358"/>
<text text-anchor="middle" x="397.978" y="-337.2" font-family="Courier,monospace" font-size="11.00">BhvDB</text>
</g>
<!-- \\DBHelper -->
<g id="node2" class="node"><title>\\DBHelper</title>
<polygon fill="none" stroke="black" points="162.239,-358 91.2388,-358 91.2388,-322 162.239,-322 162.239,-358"/>
<text text-anchor="middle" x="126.739" y="-337.2" font-family="Courier,monospace" font-size="11.00">DBHelper</text>
</g>
<!-- \\BhvDB&#45;&gt;\\DBHelper -->
<g id="edge1" class="edge"><title>\\BhvDB&#45;&gt;\\DBHelper</title>
<path fill="none" stroke="black" d="M370.672,-340C324.707,-340 229.285,-340 172.676,-340"/>
<polygon fill="none" stroke="black" points="172.578,-336.5 162.578,-340 172.578,-343.5 172.578,-336.5"/>
</g>
<!-- \\StatementHelper -->
<g id="node3" class="node"><title>\\StatementHelper</title>
<polygon fill="none" stroke="black" points="456.978,-304 338.978,-304 338.978,-268 456.978,-268 456.978,-304"/>
<text text-anchor="middle" x="397.978" y="-283.2" font-family="Courier,monospace" font-size="11.00">StatementHelper</text>
</g>
<!-- \\StringDispenser -->
<g id="node4" class="node"><title>\\StringDispenser</title>
<polygon fill="none" stroke="black" points="456.978,-250 338.978,-250 338.978,-214 456.978,-214 456.978,-250"/>
<text text-anchor="middle" x="397.978" y="-229.2" font-family="Courier,monospace" font-size="11.00">StringDispenser</text>
</g>
<!-- \\Inscription -->
<g id="node5" class="node"><title>\\Inscription</title>
<polygon fill="none" stroke="black" points="443.478,-196 352.478,-196 352.478,-160 443.478,-160 443.478,-196"/>
<text text-anchor="middle" x="397.978" y="-175.2" font-family="Courier,monospace" font-size="11.00">Inscription</text>
</g>
<!-- \\BhvDBTest -->
<g id="node6" class="node"><title>\\BhvDBTest</title>
<polygon fill="none" stroke="black" points="436.478,-142 359.478,-142 359.478,-106 436.478,-106 436.478,-142"/>
<text text-anchor="middle" x="397.978" y="-121.2" font-family="Courier,monospace" font-size="11.00">BhvDBTest</text>
</g>
<!-- \\PHPUnit_Framework_TestCase -->
<g id="node8" class="node"><title>\\PHPUnit_Framework_TestCase</title>
<ellipse fill="none" stroke="black" cx="126.739" cy="-18" rx="126.978" ry="18"/>
<text text-anchor="middle" x="126.739" y="-14.3" font-family="Times,serif" font-size="14.00" fill="gray">\PHPUnit_Framework_TestCase</text>
</g>
<!-- \\BhvDBTest&#45;&gt;\\PHPUnit_Framework_TestCase -->
<g id="edge2" class="edge"><title>\\BhvDBTest&#45;&gt;\\PHPUnit_Framework_TestCase</title>
<path fill="none" stroke="black" d="M359.252,-112.226C348.055,-108.083 335.984,-102.951 325.478,-97 289.965,-76.8852 290.721,-56.6954 253.478,-40 247.16,-37.1678 240.511,-34.6992 233.707,-32.5477"/>
<polygon fill="none" stroke="black" points="234.226,-29.0536 223.646,-29.6169 232.268,-35.7742 234.226,-29.0536"/>
</g>
<!-- \\StringDispenserTest -->
<g id="node7" class="node"><title>\\StringDispenserTest</title>
<polygon fill="none" stroke="black" points="470.478,-88 325.478,-88 325.478,-52 470.478,-52 470.478,-88"/>
<text text-anchor="middle" x="397.978" y="-67.2" font-family="Courier,monospace" font-size="11.00">StringDispenserTest</text>
</g>
<!-- \\StringDispenserTest&#45;&gt;\\PHPUnit_Framework_TestCase -->
<g id="edge3" class="edge"><title>\\StringDispenserTest&#45;&gt;\\PHPUnit_Framework_TestCase</title>
<path fill="none" stroke="black" d="M325.172,-54.5053C302.29,-49.6973 276.848,-44.4862 253.478,-40 242.17,-37.8295 230.274,-35.6339 218.493,-33.5128"/>
<polygon fill="none" stroke="black" points="219.1,-30.0659 208.64,-31.7507 217.868,-36.9566 219.1,-30.0659"/>
</g>
</g>
</svg>
